<svg xmlns="http://www.w3.org/2000/svg" xmlns:xlink="http://www.w3.org/1999/xlink" width="500" zoomAndPan="magnify" viewBox="0 0 375 374.999991" height="500" preserveAspectRatio="xMidYMid meet" version="1.0"><defs><clipPath id="3f3504b5da"><path d="M 131.25 131.25 L 243.75 131.25 L 243.75 243.75 L 131.25 243.75 Z M 131.25 131.25 " clip-rule="nonzero"/></clipPath><clipPath id="43d4390d60"><path d="M 187.5 131.25 C 156.433594 131.25 131.25 156.433594 131.25 187.5 C 131.25 218.566406 156.433594 243.75 187.5 243.75 C 218.566406 243.75 243.75 218.566406 243.75 187.5 C 243.75 156.433594 218.566406 131.25 187.5 131.25 Z M 187.5 131.25 " clip-rule="nonzero"/></clipPath></defs><g clip-path="url(#3f3504b5da)"><g clip-path="url(#43d4390d60)"><path stroke-linecap="butt" transform="matrix(0.75, 0, 0, 0.75, 131.249996, 131.249991)" fill="none" stroke-linejoin="miter" d="M 75.00001 0.0000114917 C 33.578133 0.0000114917 0.00000549167 33.578139 0.00000549167 75.000016 C 0.00000549167 116.421894 33.578133 150.000021 75.00001 150.000021 C 116.421888 150.000021 150.000015 116.421894 150.000015 75.000016 C 150.000015 33.578139 116.421888 0.0000114917 75.00001 0.0000114917 Z M 75.00001 0.0000114917 " stroke="#000000" stroke-width="20" stroke-opacity="1" stroke-miterlimit="4"/></g></g><path stroke-linecap="butt" transform="matrix(0.75, 0, 0, 0.75, 37.500002, 183.749988)" fill="none" stroke-linejoin="miter" d="M -0.00000271667 5.000016 L 99.822921 5.000016 " stroke="#000000" stroke-width="10" stroke-opacity="1" stroke-miterlimit="4"/><path stroke-linecap="round" transform="matrix(0.75, 0, 0, 0.75, 37.500002, 183.749988)" fill="none" stroke-linejoin="round" d="M 79.822919 -9.999985 L 99.822921 5.000016 L 79.822919 20.000017 " stroke="#000000" stroke-width="10" stroke-opacity="1" stroke-miterlimit="4"/><path stroke-linecap="butt" transform="matrix(-0.75, 0, 0, -0.75, 337.492775, 191.249987)" fill="none" stroke-linejoin="miter" d="M 0.000783517 4.999984 L 99.823707 4.999984 " stroke="#000000" stroke-width="10" stroke-opacity="1" stroke-miterlimit="4"/><path stroke-linecap="round" transform="matrix(-0.75, 0, 0, -0.75, 337.492775, 191.249987)" fill="none" stroke-linejoin="round" d="M 79.823705 -10.000017 L 99.823707 4.999984 L 79.823705 19.999985 " stroke="#000000" stroke-width="10" stroke-opacity="1" stroke-miterlimit="4"/><path stroke-linecap="butt" transform="matrix(0, 0.75, -0.75, 0, 191.24639, 37.503608)" fill="none" stroke-linejoin="miter" d="M 0.000397217 5.000395 L 99.82332 5.000395 " stroke="#000000" stroke-width="10" stroke-opacity="1" stroke-miterlimit="4"/><path stroke-linecap="round" transform="matrix(0, 0.75, -0.75, 0, 191.24639, 37.503608)" fill="none" stroke-linejoin="round" d="M 79.823319 -9.999606 L 99.82332 5.000395 L 79.823319 20.000396 " stroke="#000000" stroke-width="10" stroke-opacity="1" stroke-miterlimit="4"/><path stroke-linecap="butt" transform="matrix(0, -0.75, 0.75, 0, 183.74639, 337.496375)" fill="none" stroke-linejoin="miter" d="M 0.000375584 4.999605 L 99.823299 4.999605 " stroke="#000000" stroke-width="10" stroke-opacity="1" stroke-miterlimit="4"/><path stroke-linecap="round" transform="matrix(0, -0.75, 0.75, 0, 183.74639, 337.496375)" fill="none" stroke-linejoin="round" d="M 79.823297 -10.000396 L 99.823299 4.999605 L 79.823297 19.999606 " stroke="#000000" stroke-width="10" stroke-opacity="1" stroke-miterlimit="4"/></svg>