<svg xmlns="http://www.w3.org/2000/svg" xmlns:xlink="http://www.w3.org/1999/xlink" width="500" zoomAndPan="magnify" viewBox="0 0 375 374.999991" height="500" preserveAspectRatio="xMidYMid meet" version="1.0"><defs><clipPath id="dcd2cfde3e"><path d="M 37.5 57 L 337.5 57 L 337.5 318 L 37.5 318 Z M 37.5 57 " clip-rule="nonzero"/></clipPath></defs><g clip-path="url(#dcd2cfde3e)"><path fill="#000000" d="M 134.390625 57.015625 L 240.523438 57.015625 C 267.183594 57.015625 291.410156 67.910156 308.972656 85.472656 C 326.53125 103.03125 337.429688 127.257812 337.429688 153.917969 C 337.429688 180.582031 326.53125 204.804688 308.972656 222.367188 C 291.410156 239.929688 267.183594 250.824219 240.523438 250.824219 L 195.765625 250.824219 L 108.960938 315.765625 C 105.863281 318.085938 101.476562 317.460938 99.15625 314.363281 C 98.207031 313.105469 97.753906 311.632812 97.753906 310.160156 L 97.726562 310.160156 L 97.726562 243.550781 C 80.632812 236.503906 65.945312 224.6875 55.359375 209.789062 C 44.121094 193.953125 37.484375 174.664062 37.484375 153.90625 C 37.484375 127.257812 48.382812 103.019531 65.945312 85.457031 C 83.503906 67.894531 107.730469 57 134.390625 57 Z M 115.753906 187.246094 C 111.878906 187.246094 108.722656 184.105469 108.722656 180.210938 C 108.722656 176.335938 111.863281 173.179688 115.753906 173.179688 L 181.246094 173.179688 C 185.121094 173.179688 188.277344 176.320312 188.277344 180.210938 C 188.277344 184.089844 185.136719 187.246094 181.246094 187.246094 Z M 241.003906 187.246094 C 237.128906 187.246094 233.972656 184.105469 233.972656 180.210938 C 233.972656 176.335938 237.113281 173.179688 241.003906 173.179688 L 259.175781 173.179688 C 263.050781 173.179688 266.195312 176.320312 266.195312 180.210938 C 266.195312 184.089844 263.050781 187.246094 259.175781 187.246094 Z M 115.753906 134.660156 C 111.878906 134.660156 108.722656 131.519531 108.722656 127.628906 C 108.722656 123.75 111.863281 120.59375 115.753906 120.59375 L 259.175781 120.59375 C 263.050781 120.59375 266.195312 123.734375 266.195312 127.628906 C 266.195312 131.503906 263.050781 134.660156 259.175781 134.660156 Z M 240.523438 71.082031 L 134.390625 71.082031 C 111.621094 71.082031 90.90625 80.40625 75.890625 95.417969 C 60.878906 110.433594 51.550781 131.136719 51.550781 153.917969 C 51.550781 171.695312 57.199219 188.179688 66.792969 201.679688 C 76.597656 215.476562 90.496094 226.1875 106.699219 231.976562 C 109.640625 232.8125 111.792969 235.527344 111.792969 238.742188 L 111.792969 296.164062 L 188.789062 238.554688 C 190.03125 237.4375 191.675781 236.757812 193.472656 236.757812 L 240.523438 236.757812 C 263.292969 236.757812 284.007812 227.433594 299.023438 212.417969 C 314.039062 197.40625 323.363281 176.6875 323.363281 153.917969 C 323.363281 131.152344 314.039062 110.433594 299.023438 95.417969 C 284.007812 80.40625 263.292969 71.082031 240.523438 71.082031 Z M 240.523438 71.082031 " fill-opacity="1" fill-rule="nonzero"/></g></svg>