<svg xmlns="http://www.w3.org/2000/svg" xmlns:xlink="http://www.w3.org/1999/xlink" width="500" zoomAndPan="magnify" viewBox="0 0 375 374.999991" height="500" preserveAspectRatio="xMidYMid meet" version="1.2"><defs><clipPath id="b950568ba7"><path d="M 58.140625 291.304688 L 80.207031 291.304688 L 80.207031 326.109375 L 58.140625 326.109375 Z M 58.140625 291.304688 "/></clipPath><clipPath id="15586378cf"><path d="M 37.5 291 L 60 291 L 60 326.125 L 37.5 326.125 Z M 37.5 291 "/></clipPath><clipPath id="a641afb9e8"><path d="M 37.5 281.894531 L 80.207031 281.894531 L 80.207031 292.714844 L 37.5 292.714844 Z M 37.5 281.894531 "/></clipPath><clipPath id="d4550f2e90"><path d="M 143.867188 291.304688 L 165.933594 291.304688 L 165.933594 326.109375 L 143.867188 326.109375 Z M 143.867188 291.304688 "/></clipPath><clipPath id="90fd5b0a39"><path d="M 123.226562 291 L 146 291 L 146 326.125 L 123.226562 326.125 Z M 123.226562 291 "/></clipPath><clipPath id="5a01eec1a1"><path d="M 123.226562 281.894531 L 165.933594 281.894531 L 165.933594 292.714844 L 123.226562 292.714844 Z M 123.226562 281.894531 "/></clipPath><clipPath id="93ba81d2a2"><path d="M 229.59375 291.304688 L 251.660156 291.304688 L 251.660156 326.109375 L 229.59375 326.109375 Z M 229.59375 291.304688 "/></clipPath><clipPath id="7a5c23b74d"><path d="M 208.953125 291 L 231 291 L 231 326.125 L 208.953125 326.125 Z M 208.953125 291 "/></clipPath><clipPath id="86a1e267b7"><path d="M 208.953125 281.894531 L 251.660156 281.894531 L 251.660156 292.714844 L 208.953125 292.714844 Z M 208.953125 281.894531 "/></clipPath><clipPath id="46a74f440b"><path d="M 315.320312 291.304688 L 337.386719 291.304688 L 337.386719 326.109375 L 315.320312 326.109375 Z M 315.320312 291.304688 "/></clipPath><clipPath id="dac9417a98"><path d="M 294.679688 291 L 317 291 L 317 326.125 L 294.679688 326.125 Z M 294.679688 291 "/></clipPath><clipPath id="6ff7da5865"><path d="M 294.679688 281.894531 L 337.386719 281.894531 L 337.386719 292.714844 L 294.679688 292.714844 Z M 294.679688 281.894531 "/></clipPath><clipPath id="ae52ac5a33"><path d="M 143.867188 239.550781 L 165.933594 239.550781 L 165.933594 274.355469 L 143.867188 274.355469 Z M 143.867188 239.550781 "/></clipPath><clipPath id="c7e73c2f28"><path d="M 123.226562 239 L 146 239 L 146 274.371094 L 123.226562 274.371094 Z M 123.226562 239 "/></clipPath><clipPath id="f0c412003c"><path d="M 123.226562 230.140625 L 165.933594 230.140625 L 165.933594 240.964844 L 123.226562 240.964844 Z M 123.226562 230.140625 "/></clipPath><clipPath id="4dde037f01"><path d="M 229.59375 239.550781 L 251.660156 239.550781 L 251.660156 274.355469 L 229.59375 274.355469 Z M 229.59375 239.550781 "/></clipPath><clipPath id="b9d1fede03"><path d="M 208.953125 239 L 231 239 L 231 274.371094 L 208.953125 274.371094 Z M 208.953125 239 "/></clipPath><clipPath id="e88279aee0"><path d="M 208.953125 230.140625 L 251.660156 230.140625 L 251.660156 240.964844 L 208.953125 240.964844 Z M 208.953125 230.140625 "/></clipPath><clipPath id="2b719c6d5e"><path d="M 229.59375 187.800781 L 251.660156 187.800781 L 251.660156 222.601562 L 229.59375 222.601562 Z M 229.59375 187.800781 "/></clipPath><clipPath id="342f310987"><path d="M 208.953125 187 L 231 187 L 231 222.617188 L 208.953125 222.617188 Z M 208.953125 187 "/></clipPath><clipPath id="003870fba2"><path d="M 208.953125 178.386719 L 251.660156 178.386719 L 251.660156 189.210938 L 208.953125 189.210938 Z M 208.953125 178.386719 "/></clipPath><clipPath id="4b7906f81f"><path d="M 315.320312 239.550781 L 337.386719 239.550781 L 337.386719 274.355469 L 315.320312 274.355469 Z M 315.320312 239.550781 "/></clipPath><clipPath id="19aef3298d"><path d="M 294.679688 239 L 317 239 L 317 274.371094 L 294.679688 274.371094 Z M 294.679688 239 "/></clipPath><clipPath id="ae13c2536f"><path d="M 294.679688 230.140625 L 337.386719 230.140625 L 337.386719 240.964844 L 294.679688 240.964844 Z M 294.679688 230.140625 "/></clipPath><clipPath id="7a2540b04e"><path d="M 315.320312 187.800781 L 337.386719 187.800781 L 337.386719 222.601562 L 315.320312 222.601562 Z M 315.320312 187.800781 "/></clipPath><clipPath id="9362639ae6"><path d="M 294.679688 187 L 317 187 L 317 222.617188 L 294.679688 222.617188 Z M 294.679688 187 "/></clipPath><clipPath id="96034aa2e4"><path d="M 294.679688 178.386719 L 337.386719 178.386719 L 337.386719 189.210938 L 294.679688 189.210938 Z M 294.679688 178.386719 "/></clipPath><clipPath id="052bcd4ace"><path d="M 315.320312 136.046875 L 337.386719 136.046875 L 337.386719 170.847656 L 315.320312 170.847656 Z M 315.320312 136.046875 "/></clipPath><clipPath id="09c32ef287"><path d="M 294.679688 136 L 317 136 L 317 170.867188 L 294.679688 170.867188 Z M 294.679688 136 "/></clipPath><clipPath id="0d5f7b38e1"><path d="M 294.679688 126.632812 L 337.386719 126.632812 L 337.386719 137.457031 L 294.679688 137.457031 Z M 294.679688 126.632812 "/></clipPath></defs><g id="97c39b4f94"><rect x="0" width="375" y="0" height="374.999991" style="fill:#ffffff;fill-opacity:1;stroke:none;"/><rect x="0" width="375" y="0" height="374.999991" style="fill:#ffffff;fill-opacity:1;stroke:none;"/><g clip-rule="nonzero" clip-path="url(#b950568ba7)"><path style=" stroke:none;fill-rule:nonzero;fill:#597a91;fill-opacity:1;" d="M 59.542969 301.882812 L 59.542969 324.34375 L 78.824219 315.546875 L 78.824219 293.085938 Z M 58.855469 326.109375 C 58.722656 326.109375 58.59375 326.070312 58.480469 326 C 58.28125 325.871094 58.164062 325.652344 58.164062 325.417969 L 58.164062 301.4375 C 58.164062 301.167969 58.320312 300.921875 58.566406 300.808594 L 79.230469 291.382812 C 79.445312 291.285156 79.691406 291.300781 79.890625 291.429688 C 80.089844 291.554688 80.207031 291.773438 80.207031 292.011719 L 80.207031 315.992188 C 80.207031 316.261719 80.050781 316.507812 79.804688 316.621094 L 59.140625 326.046875 C 59.050781 326.089844 58.953125 326.109375 58.855469 326.109375 "/></g><g clip-rule="nonzero" clip-path="url(#15586378cf)"><path style=" stroke:none;fill-rule:nonzero;fill:#597a91;fill-opacity:1;" d="M 38.882812 315.546875 L 58.164062 324.34375 L 58.164062 301.882812 L 38.882812 293.085938 Z M 58.855469 326.109375 C 58.757812 326.109375 58.660156 326.089844 58.566406 326.046875 L 37.902344 316.621094 C 37.65625 316.507812 37.5 316.261719 37.5 315.992188 L 37.5 292.011719 C 37.5 291.773438 37.621094 291.554688 37.816406 291.429688 C 38.015625 291.300781 38.265625 291.285156 38.476562 291.382812 L 59.140625 300.808594 C 59.386719 300.921875 59.542969 301.167969 59.542969 301.4375 L 59.542969 325.417969 C 59.542969 325.652344 59.425781 325.871094 59.226562 326 C 59.113281 326.070312 58.984375 326.109375 58.855469 326.109375 "/></g><g clip-rule="nonzero" clip-path="url(#a641afb9e8)"><path style=" stroke:none;fill-rule:nonzero;fill:#597a91;fill-opacity:1;" d="M 79.515625 292.703125 C 79.421875 292.703125 79.324219 292.679688 79.230469 292.640625 L 58.855469 283.34375 L 38.476562 292.640625 C 38.128906 292.796875 37.722656 292.644531 37.5625 292.296875 C 37.402344 291.949219 37.558594 291.539062 37.902344 291.382812 L 58.566406 281.957031 C 58.75 281.871094 58.957031 281.871094 59.140625 281.957031 L 79.804688 291.382812 C 80.152344 291.539062 80.304688 291.949219 80.144531 292.296875 C 80.03125 292.550781 79.777344 292.703125 79.515625 292.703125 "/></g><path style=" stroke:none;fill-rule:nonzero;fill:#597a91;fill-opacity:1;" d="M 50.300781 303.746094 C 50.203125 303.746094 50.105469 303.726562 50.015625 303.683594 L 45.4375 301.597656 C 45.191406 301.484375 45.035156 301.238281 45.035156 300.96875 L 45.035156 295.464844 C 45.027344 295.191406 45.183594 294.933594 45.4375 294.820312 L 66.101562 285.390625 C 66.449219 285.234375 66.859375 285.386719 67.015625 285.734375 C 67.175781 286.082031 67.019531 286.492188 66.675781 286.648438 L 46.414062 295.890625 L 46.414062 300.523438 L 49.609375 301.980469 L 49.609375 297.550781 C 49.609375 297.546875 49.609375 297.539062 49.609375 297.535156 C 49.609375 297.25 49.785156 297.003906 50.035156 296.898438 L 70.679688 287.480469 C 71.023438 287.320312 71.433594 287.476562 71.59375 287.820312 C 71.75 288.167969 71.597656 288.578125 71.25 288.738281 L 50.992188 297.980469 L 50.992188 303.054688 C 50.992188 303.289062 50.875 303.507812 50.675781 303.636719 C 50.5625 303.710938 50.433594 303.746094 50.300781 303.746094 "/><g clip-rule="nonzero" clip-path="url(#d4550f2e90)"><path style=" stroke:none;fill-rule:nonzero;fill:#597a91;fill-opacity:1;" d="M 145.269531 301.882812 L 145.269531 324.34375 L 164.550781 315.546875 L 164.550781 293.085938 Z M 144.582031 326.109375 C 144.449219 326.109375 144.320312 326.070312 144.207031 326 C 144.007812 325.871094 143.890625 325.652344 143.890625 325.417969 L 143.890625 301.4375 C 143.890625 301.167969 144.046875 300.921875 144.292969 300.808594 L 164.957031 291.382812 C 165.171875 291.285156 165.417969 291.300781 165.617188 291.429688 C 165.8125 291.554688 165.933594 291.773438 165.933594 292.011719 L 165.933594 315.992188 C 165.933594 316.261719 165.777344 316.507812 165.53125 316.621094 L 144.867188 326.046875 C 144.777344 326.089844 144.675781 326.109375 144.582031 326.109375 "/></g><g clip-rule="nonzero" clip-path="url(#90fd5b0a39)"><path style=" stroke:none;fill-rule:nonzero;fill:#597a91;fill-opacity:1;" d="M 124.609375 315.546875 L 143.890625 324.34375 L 143.890625 301.882812 L 124.609375 293.085938 Z M 144.582031 326.109375 C 144.484375 326.109375 144.386719 326.089844 144.292969 326.046875 L 123.628906 316.621094 C 123.382812 316.507812 123.226562 316.261719 123.226562 315.992188 L 123.226562 292.011719 C 123.226562 291.773438 123.347656 291.554688 123.542969 291.429688 C 123.742188 291.300781 123.992188 291.285156 124.203125 291.382812 L 144.867188 300.808594 C 145.113281 300.921875 145.269531 301.167969 145.269531 301.4375 L 145.269531 325.417969 C 145.269531 325.652344 145.152344 325.871094 144.953125 326 C 144.839844 326.070312 144.710938 326.109375 144.582031 326.109375 "/></g><g clip-rule="nonzero" clip-path="url(#5a01eec1a1)"><path style=" stroke:none;fill-rule:nonzero;fill:#597a91;fill-opacity:1;" d="M 165.242188 292.703125 C 165.148438 292.703125 165.050781 292.679688 164.957031 292.640625 L 144.582031 283.34375 L 124.203125 292.640625 C 123.855469 292.796875 123.445312 292.644531 123.289062 292.296875 C 123.128906 291.949219 123.285156 291.539062 123.628906 291.382812 L 144.292969 281.957031 C 144.476562 281.871094 144.683594 281.871094 144.867188 281.957031 L 165.53125 291.382812 C 165.875 291.539062 166.03125 291.949219 165.871094 292.296875 C 165.753906 292.550781 165.503906 292.703125 165.242188 292.703125 "/></g><path style=" stroke:none;fill-rule:nonzero;fill:#597a91;fill-opacity:1;" d="M 136.027344 303.746094 C 135.929688 303.746094 135.832031 303.726562 135.742188 303.683594 L 131.164062 301.597656 C 130.917969 301.484375 130.761719 301.238281 130.761719 300.96875 L 130.761719 295.464844 C 130.753906 295.191406 130.910156 294.933594 131.164062 294.820312 L 151.828125 285.390625 C 152.175781 285.234375 152.582031 285.386719 152.742188 285.734375 C 152.902344 286.082031 152.746094 286.492188 152.402344 286.648438 L 132.140625 295.890625 L 132.140625 300.523438 L 135.335938 301.980469 L 135.335938 297.550781 C 135.335938 297.546875 135.335938 297.539062 135.335938 297.535156 C 135.335938 297.25 135.511719 297.003906 135.757812 296.898438 L 156.40625 287.480469 C 156.75 287.320312 157.160156 287.476562 157.320312 287.820312 C 157.476562 288.167969 157.324219 288.578125 156.976562 288.738281 L 136.71875 297.980469 L 136.71875 303.054688 C 136.71875 303.289062 136.597656 303.507812 136.402344 303.636719 C 136.289062 303.710938 136.160156 303.746094 136.027344 303.746094 "/><g clip-rule="nonzero" clip-path="url(#93ba81d2a2)"><path style=" stroke:none;fill-rule:nonzero;fill:#597a91;fill-opacity:1;" d="M 230.996094 301.882812 L 230.996094 324.34375 L 250.277344 315.546875 L 250.277344 293.085938 Z M 230.304688 326.109375 C 230.175781 326.109375 230.046875 326.070312 229.933594 326 C 229.734375 325.871094 229.617188 325.652344 229.617188 325.417969 L 229.617188 301.4375 C 229.617188 301.167969 229.773438 300.921875 230.019531 300.808594 L 250.683594 291.382812 C 250.894531 291.285156 251.144531 291.300781 251.34375 291.429688 C 251.539062 291.554688 251.660156 291.773438 251.660156 292.011719 L 251.660156 315.992188 C 251.660156 316.261719 251.503906 316.507812 251.257812 316.621094 L 230.59375 326.046875 C 230.5 326.089844 230.402344 326.109375 230.304688 326.109375 "/></g><g clip-rule="nonzero" clip-path="url(#7a5c23b74d)"><path style=" stroke:none;fill-rule:nonzero;fill:#597a91;fill-opacity:1;" d="M 210.335938 315.546875 L 229.617188 324.34375 L 229.617188 301.882812 L 210.335938 293.085938 Z M 230.304688 326.109375 C 230.207031 326.109375 230.109375 326.089844 230.019531 326.046875 L 209.355469 316.621094 C 209.109375 316.507812 208.953125 316.261719 208.953125 315.992188 L 208.953125 292.011719 C 208.953125 291.773438 209.070312 291.554688 209.269531 291.429688 C 209.46875 291.300781 209.714844 291.285156 209.929688 291.382812 L 230.59375 300.808594 C 230.839844 300.921875 230.996094 301.167969 230.996094 301.4375 L 230.996094 325.417969 C 230.996094 325.652344 230.878906 325.871094 230.679688 326 C 230.566406 326.070312 230.4375 326.109375 230.304688 326.109375 "/></g><g clip-rule="nonzero" clip-path="url(#86a1e267b7)"><path style=" stroke:none;fill-rule:nonzero;fill:#597a91;fill-opacity:1;" d="M 250.96875 292.703125 C 250.871094 292.703125 250.777344 292.679688 250.683594 292.640625 L 230.304688 283.34375 L 209.929688 292.640625 C 209.582031 292.796875 209.171875 292.644531 209.015625 292.296875 C 208.855469 291.949219 209.007812 291.539062 209.355469 291.382812 L 230.019531 281.957031 C 230.203125 281.871094 230.410156 281.871094 230.59375 281.957031 L 251.257812 291.382812 C 251.601562 291.539062 251.757812 291.949219 251.597656 292.296875 C 251.480469 292.550781 251.230469 292.703125 250.96875 292.703125 "/></g><path style=" stroke:none;fill-rule:nonzero;fill:#597a91;fill-opacity:1;" d="M 221.753906 303.746094 C 221.65625 303.746094 221.558594 303.726562 221.46875 303.683594 L 216.890625 301.597656 C 216.644531 301.484375 216.488281 301.238281 216.488281 300.96875 L 216.488281 295.464844 C 216.480469 295.191406 216.636719 294.933594 216.890625 294.820312 L 237.554688 285.390625 C 237.902344 285.234375 238.308594 285.386719 238.46875 285.734375 C 238.628906 286.082031 238.472656 286.492188 238.125 286.648438 L 217.867188 295.890625 L 217.867188 300.523438 L 221.0625 301.980469 L 221.0625 297.550781 C 221.0625 297.546875 221.0625 297.539062 221.0625 297.535156 C 221.0625 297.25 221.238281 297.003906 221.484375 296.898438 L 242.128906 287.480469 C 242.476562 287.320312 242.886719 287.476562 243.046875 287.820312 C 243.203125 288.167969 243.050781 288.578125 242.703125 288.738281 L 222.445312 297.980469 L 222.445312 303.054688 C 222.445312 303.289062 222.324219 303.507812 222.128906 303.636719 C 222.015625 303.710938 221.886719 303.746094 221.753906 303.746094 "/><g clip-rule="nonzero" clip-path="url(#46a74f440b)"><path style=" stroke:none;fill-rule:nonzero;fill:#597a91;fill-opacity:1;" d="M 316.722656 301.882812 L 316.722656 324.34375 L 336.003906 315.546875 L 336.003906 293.085938 Z M 316.03125 326.109375 C 315.902344 326.109375 315.773438 326.070312 315.660156 326 C 315.460938 325.871094 315.34375 325.652344 315.34375 325.417969 L 315.34375 301.4375 C 315.34375 301.167969 315.5 300.921875 315.746094 300.808594 L 336.410156 291.382812 C 336.621094 291.285156 336.871094 291.300781 337.070312 291.429688 C 337.265625 291.554688 337.386719 291.773438 337.386719 292.011719 L 337.386719 315.992188 C 337.386719 316.261719 337.226562 316.507812 336.980469 316.621094 L 316.320312 326.046875 C 316.226562 326.089844 316.128906 326.109375 316.03125 326.109375 "/></g><g clip-rule="nonzero" clip-path="url(#dac9417a98)"><path style=" stroke:none;fill-rule:nonzero;fill:#597a91;fill-opacity:1;" d="M 296.0625 315.546875 L 315.34375 324.34375 L 315.34375 301.882812 L 296.0625 293.085938 Z M 316.03125 326.109375 C 315.933594 326.109375 315.835938 326.089844 315.746094 326.046875 L 295.082031 316.621094 C 294.835938 316.507812 294.679688 316.261719 294.679688 315.992188 L 294.679688 292.011719 C 294.679688 291.773438 294.796875 291.554688 294.996094 291.429688 C 295.195312 291.300781 295.441406 291.285156 295.65625 291.382812 L 316.320312 300.808594 C 316.566406 300.921875 316.722656 301.167969 316.722656 301.4375 L 316.722656 325.417969 C 316.722656 325.652344 316.605469 325.871094 316.40625 326 C 316.292969 326.070312 316.164062 326.109375 316.03125 326.109375 "/></g><g clip-rule="nonzero" clip-path="url(#6ff7da5865)"><path style=" stroke:none;fill-rule:nonzero;fill:#597a91;fill-opacity:1;" d="M 336.695312 292.703125 C 336.597656 292.703125 336.5 292.679688 336.410156 292.640625 L 316.03125 283.34375 L 295.65625 292.640625 C 295.308594 292.796875 294.898438 292.644531 294.742188 292.296875 C 294.582031 291.949219 294.734375 291.539062 295.082031 291.382812 L 315.746094 281.957031 C 315.929688 281.871094 316.136719 281.871094 316.320312 281.957031 L 336.980469 291.382812 C 337.328125 291.539062 337.484375 291.949219 337.324219 292.296875 C 337.207031 292.550781 336.957031 292.703125 336.695312 292.703125 "/></g><path style=" stroke:none;fill-rule:nonzero;fill:#597a91;fill-opacity:1;" d="M 307.480469 303.746094 C 307.382812 303.746094 307.285156 303.726562 307.195312 303.683594 L 302.617188 301.597656 C 302.371094 301.484375 302.210938 301.238281 302.210938 300.96875 L 302.210938 295.464844 C 302.207031 295.191406 302.359375 294.933594 302.617188 294.820312 L 323.28125 285.390625 C 323.625 285.234375 324.035156 285.386719 324.195312 285.734375 C 324.351562 286.082031 324.199219 286.492188 323.851562 286.648438 L 303.59375 295.890625 L 303.59375 300.523438 L 306.789062 301.980469 L 306.789062 297.550781 C 306.789062 297.546875 306.789062 297.539062 306.789062 297.535156 C 306.789062 297.25 306.964844 297.003906 307.210938 296.898438 L 327.855469 287.480469 C 328.203125 287.320312 328.613281 287.476562 328.773438 287.820312 C 328.929688 288.167969 328.777344 288.578125 328.429688 288.738281 L 308.171875 297.980469 L 308.171875 303.054688 C 308.171875 303.289062 308.050781 303.507812 307.855469 303.636719 C 307.742188 303.710938 307.609375 303.746094 307.480469 303.746094 "/><g clip-rule="nonzero" clip-path="url(#ae52ac5a33)"><path style=" stroke:none;fill-rule:nonzero;fill:#597a91;fill-opacity:1;" d="M 145.269531 250.128906 L 145.269531 272.589844 L 164.550781 263.792969 L 164.550781 241.332031 Z M 144.582031 274.355469 C 144.449219 274.355469 144.320312 274.316406 144.207031 274.246094 C 144.007812 274.117188 143.890625 273.898438 143.890625 273.664062 L 143.890625 249.683594 C 143.890625 249.414062 144.046875 249.167969 144.292969 249.054688 L 164.957031 239.628906 C 165.171875 239.53125 165.417969 239.546875 165.617188 239.675781 C 165.8125 239.804688 165.933594 240.023438 165.933594 240.257812 L 165.933594 264.238281 C 165.933594 264.507812 165.777344 264.753906 165.53125 264.867188 L 144.867188 274.292969 C 144.777344 274.335938 144.675781 274.355469 144.582031 274.355469 "/></g><g clip-rule="nonzero" clip-path="url(#c7e73c2f28)"><path style=" stroke:none;fill-rule:nonzero;fill:#597a91;fill-opacity:1;" d="M 124.609375 263.792969 L 143.890625 272.589844 L 143.890625 250.128906 L 124.609375 241.332031 Z M 144.582031 274.355469 C 144.484375 274.355469 144.386719 274.335938 144.292969 274.292969 L 123.628906 264.867188 C 123.382812 264.753906 123.226562 264.507812 123.226562 264.238281 L 123.226562 240.257812 C 123.226562 240.023438 123.347656 239.804688 123.542969 239.675781 C 123.742188 239.546875 123.992188 239.53125 124.203125 239.628906 L 144.867188 249.054688 C 145.113281 249.167969 145.269531 249.414062 145.269531 249.683594 L 145.269531 273.664062 C 145.269531 273.898438 145.152344 274.117188 144.953125 274.246094 C 144.839844 274.316406 144.710938 274.355469 144.582031 274.355469 "/></g><g clip-rule="nonzero" clip-path="url(#f0c412003c)"><path style=" stroke:none;fill-rule:nonzero;fill:#597a91;fill-opacity:1;" d="M 165.242188 240.949219 C 165.148438 240.949219 165.050781 240.925781 164.957031 240.886719 L 144.582031 231.589844 L 124.203125 240.886719 C 123.855469 241.042969 123.445312 240.890625 123.289062 240.542969 C 123.128906 240.195312 123.285156 239.785156 123.628906 239.628906 L 144.292969 230.203125 C 144.476562 230.117188 144.683594 230.117188 144.867188 230.203125 L 165.53125 239.628906 C 165.875 239.785156 166.03125 240.195312 165.871094 240.542969 C 165.753906 240.796875 165.503906 240.949219 165.242188 240.949219 "/></g><path style=" stroke:none;fill-rule:nonzero;fill:#597a91;fill-opacity:1;" d="M 136.027344 251.992188 C 135.929688 251.992188 135.832031 251.972656 135.742188 251.929688 L 131.164062 249.84375 C 130.917969 249.730469 130.761719 249.484375 130.761719 249.214844 L 130.761719 243.710938 C 130.753906 243.4375 130.910156 243.183594 131.164062 243.066406 L 151.828125 233.636719 C 152.175781 233.480469 152.582031 233.632812 152.742188 233.980469 C 152.902344 234.328125 152.746094 234.738281 152.402344 234.894531 L 132.140625 244.136719 L 132.140625 248.769531 L 135.335938 250.226562 L 135.335938 245.796875 C 135.335938 245.792969 135.335938 245.785156 135.335938 245.78125 C 135.335938 245.496094 135.511719 245.25 135.757812 245.144531 L 156.40625 235.726562 C 156.75 235.566406 157.160156 235.722656 157.320312 236.070312 C 157.476562 236.414062 157.324219 236.824219 156.976562 236.984375 L 136.71875 246.226562 L 136.71875 251.300781 C 136.71875 251.539062 136.597656 251.757812 136.402344 251.882812 C 136.289062 251.957031 136.160156 251.992188 136.027344 251.992188 "/><g clip-rule="nonzero" clip-path="url(#4dde037f01)"><path style=" stroke:none;fill-rule:nonzero;fill:#597a91;fill-opacity:1;" d="M 230.996094 250.128906 L 230.996094 272.589844 L 250.277344 263.792969 L 250.277344 241.332031 Z M 230.304688 274.355469 C 230.175781 274.355469 230.046875 274.316406 229.933594 274.246094 C 229.734375 274.117188 229.617188 273.898438 229.617188 273.664062 L 229.617188 249.683594 C 229.617188 249.414062 229.773438 249.167969 230.019531 249.054688 L 250.683594 239.628906 C 250.894531 239.53125 251.144531 239.546875 251.34375 239.675781 C 251.539062 239.804688 251.660156 240.023438 251.660156 240.257812 L 251.660156 264.238281 C 251.660156 264.507812 251.503906 264.753906 251.257812 264.867188 L 230.59375 274.292969 C 230.5 274.335938 230.402344 274.355469 230.304688 274.355469 "/></g><g clip-rule="nonzero" clip-path="url(#b9d1fede03)"><path style=" stroke:none;fill-rule:nonzero;fill:#597a91;fill-opacity:1;" d="M 210.335938 263.792969 L 229.617188 272.589844 L 229.617188 250.128906 L 210.335938 241.332031 Z M 230.304688 274.355469 C 230.207031 274.355469 230.109375 274.335938 230.019531 274.292969 L 209.355469 264.867188 C 209.109375 264.753906 208.953125 264.507812 208.953125 264.238281 L 208.953125 240.257812 C 208.953125 240.023438 209.070312 239.804688 209.269531 239.675781 C 209.46875 239.546875 209.714844 239.53125 209.929688 239.628906 L 230.59375 249.054688 C 230.839844 249.167969 230.996094 249.414062 230.996094 249.683594 L 230.996094 273.664062 C 230.996094 273.898438 230.878906 274.117188 230.679688 274.246094 C 230.566406 274.316406 230.4375 274.355469 230.304688 274.355469 "/></g><g clip-rule="nonzero" clip-path="url(#e88279aee0)"><path style=" stroke:none;fill-rule:nonzero;fill:#597a91;fill-opacity:1;" d="M 250.96875 240.949219 C 250.871094 240.949219 250.777344 240.925781 250.683594 240.886719 L 230.304688 231.589844 L 209.929688 240.886719 C 209.582031 241.042969 209.171875 240.890625 209.015625 240.542969 C 208.855469 240.195312 209.007812 239.785156 209.355469 239.628906 L 230.019531 230.203125 C 230.203125 230.117188 230.410156 230.117188 230.59375 230.203125 L 251.257812 239.628906 C 251.601562 239.785156 251.757812 240.195312 251.597656 240.542969 C 251.480469 240.796875 251.230469 240.949219 250.96875 240.949219 "/></g><path style=" stroke:none;fill-rule:nonzero;fill:#597a91;fill-opacity:1;" d="M 221.753906 251.992188 C 221.65625 251.992188 221.558594 251.972656 221.46875 251.929688 L 216.890625 249.84375 C 216.644531 249.730469 216.488281 249.484375 216.488281 249.214844 L 216.488281 243.710938 C 216.480469 243.4375 216.636719 243.183594 216.890625 243.066406 L 237.554688 233.636719 C 237.902344 233.480469 238.308594 233.632812 238.46875 233.980469 C 238.628906 234.328125 238.472656 234.738281 238.125 234.894531 L 217.867188 244.136719 L 217.867188 248.769531 L 221.0625 250.226562 L 221.0625 245.796875 C 221.0625 245.792969 221.0625 245.785156 221.0625 245.78125 C 221.0625 245.496094 221.238281 245.25 221.484375 245.144531 L 242.128906 235.726562 C 242.476562 235.566406 242.886719 235.722656 243.046875 236.070312 C 243.203125 236.414062 243.050781 236.824219 242.703125 236.984375 L 222.445312 246.226562 L 222.445312 251.300781 C 222.445312 251.539062 222.324219 251.757812 222.128906 251.882812 C 222.015625 251.957031 221.886719 251.992188 221.753906 251.992188 "/><g clip-rule="nonzero" clip-path="url(#2b719c6d5e)"><path style=" stroke:none;fill-rule:nonzero;fill:#597a91;fill-opacity:1;" d="M 230.996094 198.375 L 230.996094 220.835938 L 250.277344 212.039062 L 250.277344 189.578125 Z M 230.304688 222.601562 C 230.175781 222.601562 230.046875 222.566406 229.933594 222.492188 C 229.734375 222.363281 229.617188 222.144531 229.617188 221.910156 L 229.617188 197.929688 C 229.617188 197.660156 229.773438 197.414062 230.019531 197.300781 L 250.683594 187.875 C 250.894531 187.777344 251.144531 187.796875 251.34375 187.921875 C 251.539062 188.050781 251.660156 188.269531 251.660156 188.503906 L 251.660156 212.484375 C 251.660156 212.753906 251.503906 213 251.257812 213.113281 L 230.59375 222.539062 C 230.5 222.582031 230.402344 222.601562 230.304688 222.601562 "/></g><g clip-rule="nonzero" clip-path="url(#342f310987)"><path style=" stroke:none;fill-rule:nonzero;fill:#597a91;fill-opacity:1;" d="M 210.335938 212.039062 L 229.617188 220.835938 L 229.617188 198.375 L 210.335938 189.578125 Z M 230.304688 222.601562 C 230.207031 222.601562 230.109375 222.582031 230.019531 222.539062 L 209.355469 213.113281 C 209.109375 213 208.953125 212.753906 208.953125 212.484375 L 208.953125 188.503906 C 208.953125 188.269531 209.070312 188.050781 209.269531 187.921875 C 209.46875 187.796875 209.714844 187.777344 209.929688 187.875 L 230.59375 197.300781 C 230.839844 197.414062 230.996094 197.660156 230.996094 197.929688 L 230.996094 221.910156 C 230.996094 222.144531 230.878906 222.363281 230.679688 222.492188 C 230.566406 222.566406 230.4375 222.601562 230.304688 222.601562 "/></g><g clip-rule="nonzero" clip-path="url(#003870fba2)"><path style=" stroke:none;fill-rule:nonzero;fill:#597a91;fill-opacity:1;" d="M 250.96875 189.195312 C 250.871094 189.195312 250.777344 189.175781 250.683594 189.132812 L 230.304688 179.835938 L 209.929688 189.132812 C 209.582031 189.289062 209.171875 189.136719 209.015625 188.789062 C 208.855469 188.441406 209.007812 188.03125 209.355469 187.875 L 230.019531 178.449219 C 230.203125 178.367188 230.410156 178.367188 230.59375 178.449219 L 251.257812 187.875 C 251.601562 188.03125 251.757812 188.441406 251.597656 188.789062 C 251.480469 189.042969 251.230469 189.195312 250.96875 189.195312 "/></g><path style=" stroke:none;fill-rule:nonzero;fill:#597a91;fill-opacity:1;" d="M 221.753906 200.238281 C 221.65625 200.238281 221.558594 200.21875 221.46875 200.175781 L 216.890625 198.089844 C 216.644531 197.976562 216.488281 197.730469 216.488281 197.460938 L 216.488281 191.957031 C 216.480469 191.683594 216.636719 191.429688 216.890625 191.3125 L 237.554688 181.886719 C 237.902344 181.726562 238.308594 181.878906 238.46875 182.226562 C 238.628906 182.574219 238.472656 182.984375 238.125 183.140625 L 217.867188 192.382812 L 217.867188 197.015625 L 221.0625 198.472656 L 221.0625 194.042969 C 221.0625 194.039062 221.0625 194.035156 221.0625 194.027344 C 221.0625 193.742188 221.238281 193.496094 221.484375 193.390625 L 242.128906 183.972656 C 242.476562 183.816406 242.886719 183.96875 243.046875 184.316406 C 243.203125 184.664062 243.050781 185.070312 242.703125 185.230469 L 222.445312 194.472656 L 222.445312 199.550781 C 222.445312 199.785156 222.324219 200.003906 222.128906 200.128906 C 222.015625 200.203125 221.886719 200.238281 221.753906 200.238281 "/><g clip-rule="nonzero" clip-path="url(#4b7906f81f)"><path style=" stroke:none;fill-rule:nonzero;fill:#597a91;fill-opacity:1;" d="M 316.722656 250.128906 L 316.722656 272.589844 L 336.003906 263.792969 L 336.003906 241.332031 Z M 316.03125 274.355469 C 315.902344 274.355469 315.773438 274.316406 315.660156 274.246094 C 315.460938 274.117188 315.34375 273.898438 315.34375 273.664062 L 315.34375 249.683594 C 315.34375 249.414062 315.5 249.167969 315.746094 249.054688 L 336.410156 239.628906 C 336.621094 239.53125 336.871094 239.546875 337.070312 239.675781 C 337.265625 239.804688 337.386719 240.023438 337.386719 240.257812 L 337.386719 264.238281 C 337.386719 264.507812 337.226562 264.753906 336.980469 264.867188 L 316.320312 274.292969 C 316.226562 274.335938 316.128906 274.355469 316.03125 274.355469 "/></g><g clip-rule="nonzero" clip-path="url(#19aef3298d)"><path style=" stroke:none;fill-rule:nonzero;fill:#597a91;fill-opacity:1;" d="M 296.0625 263.792969 L 315.34375 272.589844 L 315.34375 250.128906 L 296.0625 241.332031 Z M 316.03125 274.355469 C 315.933594 274.355469 315.835938 274.335938 315.746094 274.292969 L 295.082031 264.867188 C 294.835938 264.753906 294.679688 264.507812 294.679688 264.238281 L 294.679688 240.257812 C 294.679688 240.023438 294.796875 239.804688 294.996094 239.675781 C 295.195312 239.546875 295.441406 239.53125 295.65625 239.628906 L 316.320312 249.054688 C 316.566406 249.167969 316.722656 249.414062 316.722656 249.683594 L 316.722656 273.664062 C 316.722656 273.898438 316.605469 274.117188 316.40625 274.246094 C 316.292969 274.316406 316.164062 274.355469 316.03125 274.355469 "/></g><g clip-rule="nonzero" clip-path="url(#ae13c2536f)"><path style=" stroke:none;fill-rule:nonzero;fill:#597a91;fill-opacity:1;" d="M 336.695312 240.949219 C 336.597656 240.949219 336.5 240.925781 336.410156 240.886719 L 316.03125 231.589844 L 295.65625 240.886719 C 295.308594 241.042969 294.898438 240.890625 294.742188 240.542969 C 294.582031 240.195312 294.734375 239.785156 295.082031 239.628906 L 315.746094 230.203125 C 315.929688 230.117188 316.136719 230.117188 316.320312 230.203125 L 336.980469 239.628906 C 337.328125 239.785156 337.484375 240.195312 337.324219 240.542969 C 337.207031 240.796875 336.957031 240.949219 336.695312 240.949219 "/></g><path style=" stroke:none;fill-rule:nonzero;fill:#597a91;fill-opacity:1;" d="M 307.480469 251.992188 C 307.382812 251.992188 307.285156 251.972656 307.195312 251.929688 L 302.617188 249.84375 C 302.371094 249.730469 302.210938 249.484375 302.210938 249.214844 L 302.210938 243.710938 C 302.207031 243.4375 302.359375 243.183594 302.617188 243.066406 L 323.28125 233.636719 C 323.625 233.480469 324.035156 233.632812 324.195312 233.980469 C 324.351562 234.328125 324.199219 234.738281 323.851562 234.894531 L 303.59375 244.136719 L 303.59375 248.769531 L 306.789062 250.226562 L 306.789062 245.796875 C 306.789062 245.792969 306.789062 245.785156 306.789062 245.78125 C 306.789062 245.496094 306.964844 245.25 307.210938 245.144531 L 327.855469 235.726562 C 328.203125 235.566406 328.613281 235.722656 328.773438 236.070312 C 328.929688 236.414062 328.777344 236.824219 328.429688 236.984375 L 308.171875 246.226562 L 308.171875 251.300781 C 308.171875 251.539062 308.050781 251.757812 307.855469 251.882812 C 307.742188 251.957031 307.609375 251.992188 307.480469 251.992188 "/><g clip-rule="nonzero" clip-path="url(#7a2540b04e)"><path style=" stroke:none;fill-rule:nonzero;fill:#597a91;fill-opacity:1;" d="M 316.722656 198.375 L 316.722656 220.835938 L 336.003906 212.039062 L 336.003906 189.578125 Z M 316.03125 222.601562 C 315.902344 222.601562 315.773438 222.566406 315.660156 222.492188 C 315.460938 222.363281 315.34375 222.144531 315.34375 221.910156 L 315.34375 197.929688 C 315.34375 197.660156 315.5 197.414062 315.746094 197.300781 L 336.410156 187.875 C 336.621094 187.777344 336.871094 187.796875 337.070312 187.921875 C 337.265625 188.050781 337.386719 188.269531 337.386719 188.503906 L 337.386719 212.484375 C 337.386719 212.753906 337.226562 213 336.980469 213.113281 L 316.320312 222.539062 C 316.226562 222.582031 316.128906 222.601562 316.03125 222.601562 "/></g><g clip-rule="nonzero" clip-path="url(#9362639ae6)"><path style=" stroke:none;fill-rule:nonzero;fill:#597a91;fill-opacity:1;" d="M 296.0625 212.039062 L 315.34375 220.835938 L 315.34375 198.375 L 296.0625 189.578125 Z M 316.03125 222.601562 C 315.933594 222.601562 315.835938 222.582031 315.746094 222.539062 L 295.082031 213.113281 C 294.835938 213 294.679688 212.753906 294.679688 212.484375 L 294.679688 188.503906 C 294.679688 188.269531 294.796875 188.050781 294.996094 187.921875 C 295.195312 187.796875 295.441406 187.777344 295.65625 187.875 L 316.320312 197.300781 C 316.566406 197.414062 316.722656 197.660156 316.722656 197.929688 L 316.722656 221.910156 C 316.722656 222.144531 316.605469 222.363281 316.40625 222.492188 C 316.292969 222.566406 316.164062 222.601562 316.03125 222.601562 "/></g><g clip-rule="nonzero" clip-path="url(#96034aa2e4)"><path style=" stroke:none;fill-rule:nonzero;fill:#597a91;fill-opacity:1;" d="M 336.695312 189.195312 C 336.597656 189.195312 336.5 189.175781 336.410156 189.132812 L 316.03125 179.835938 L 295.65625 189.132812 C 295.308594 189.289062 294.898438 189.136719 294.742188 188.789062 C 294.582031 188.441406 294.734375 188.03125 295.082031 187.875 L 315.746094 178.449219 C 315.929688 178.367188 316.136719 178.367188 316.320312 178.449219 L 336.980469 187.875 C 337.328125 188.03125 337.484375 188.441406 337.324219 188.789062 C 337.207031 189.042969 336.957031 189.195312 336.695312 189.195312 "/></g><path style=" stroke:none;fill-rule:nonzero;fill:#597a91;fill-opacity:1;" d="M 307.480469 200.238281 C 307.382812 200.238281 307.285156 200.21875 307.195312 200.175781 L 302.617188 198.089844 C 302.371094 197.976562 302.210938 197.730469 302.210938 197.460938 L 302.210938 191.957031 C 302.207031 191.683594 302.359375 191.429688 302.617188 191.3125 L 323.28125 181.886719 C 323.625 181.726562 324.035156 181.878906 324.195312 182.226562 C 324.351562 182.574219 324.199219 182.984375 323.851562 183.140625 L 303.59375 192.382812 L 303.59375 197.015625 L 306.789062 198.472656 L 306.789062 194.042969 C 306.789062 194.039062 306.789062 194.035156 306.789062 194.027344 C 306.789062 193.742188 306.964844 193.496094 307.210938 193.390625 L 327.855469 183.972656 C 328.203125 183.816406 328.613281 183.96875 328.773438 184.316406 C 328.929688 184.664062 328.777344 185.070312 328.429688 185.230469 L 308.171875 194.472656 L 308.171875 199.550781 C 308.171875 199.785156 308.050781 200.003906 307.855469 200.128906 C 307.742188 200.203125 307.609375 200.238281 307.480469 200.238281 "/><g clip-rule="nonzero" clip-path="url(#052bcd4ace)"><path style=" stroke:none;fill-rule:nonzero;fill:#597a91;fill-opacity:1;" d="M 316.722656 146.621094 L 316.722656 169.082031 L 336.003906 160.285156 L 336.003906 137.824219 Z M 316.03125 170.847656 C 315.902344 170.847656 315.773438 170.8125 315.660156 170.738281 C 315.460938 170.609375 315.34375 170.390625 315.34375 170.15625 L 315.34375 146.175781 C 315.34375 145.90625 315.5 145.660156 315.746094 145.546875 L 336.410156 136.121094 C 336.621094 136.023438 336.871094 136.042969 337.070312 136.167969 C 337.265625 136.296875 337.386719 136.515625 337.386719 136.75 L 337.386719 160.730469 C 337.386719 161 337.226562 161.246094 336.980469 161.359375 L 316.320312 170.785156 C 316.226562 170.828125 316.128906 170.847656 316.03125 170.847656 "/></g><g clip-rule="nonzero" clip-path="url(#09c32ef287)"><path style=" stroke:none;fill-rule:nonzero;fill:#597a91;fill-opacity:1;" d="M 296.0625 160.285156 L 315.34375 169.082031 L 315.34375 146.621094 L 296.0625 137.824219 Z M 316.03125 170.847656 C 315.933594 170.847656 315.835938 170.828125 315.746094 170.785156 L 295.082031 161.359375 C 294.835938 161.246094 294.679688 161 294.679688 160.730469 L 294.679688 136.75 C 294.679688 136.515625 294.796875 136.296875 294.996094 136.167969 C 295.195312 136.042969 295.441406 136.023438 295.65625 136.121094 L 316.320312 145.546875 C 316.566406 145.660156 316.722656 145.90625 316.722656 146.175781 L 316.722656 170.15625 C 316.722656 170.390625 316.605469 170.609375 316.40625 170.738281 C 316.292969 170.8125 316.164062 170.847656 316.03125 170.847656 "/></g><g clip-rule="nonzero" clip-path="url(#0d5f7b38e1)"><path style=" stroke:none;fill-rule:nonzero;fill:#597a91;fill-opacity:1;" d="M 336.695312 137.441406 C 336.597656 137.441406 336.5 137.421875 336.410156 137.378906 L 316.03125 128.082031 L 295.65625 137.378906 C 295.308594 137.535156 294.898438 137.382812 294.742188 137.035156 C 294.582031 136.691406 294.734375 136.28125 295.082031 136.121094 L 315.746094 126.695312 C 315.929688 126.613281 316.136719 126.613281 316.320312 126.695312 L 336.980469 136.121094 C 337.328125 136.28125 337.484375 136.691406 337.324219 137.035156 C 337.207031 137.289062 336.957031 137.441406 336.695312 137.441406 "/></g><path style=" stroke:none;fill-rule:nonzero;fill:#597a91;fill-opacity:1;" d="M 307.480469 148.484375 C 307.382812 148.484375 307.285156 148.464844 307.195312 148.425781 L 302.617188 146.335938 C 302.371094 146.222656 302.210938 145.976562 302.210938 145.707031 L 302.210938 140.203125 C 302.207031 139.933594 302.359375 139.675781 302.617188 139.558594 L 323.28125 130.132812 C 323.625 129.972656 324.035156 130.125 324.195312 130.472656 C 324.351562 130.820312 324.199219 131.230469 323.851562 131.386719 L 303.59375 140.632812 L 303.59375 145.261719 L 306.789062 146.722656 L 306.789062 142.289062 C 306.789062 142.285156 306.789062 142.28125 306.789062 142.273438 C 306.789062 141.988281 306.964844 141.742188 307.210938 141.636719 L 327.855469 132.21875 C 328.203125 132.0625 328.613281 132.214844 328.773438 132.5625 C 328.929688 132.910156 328.777344 133.320312 328.429688 133.476562 L 308.171875 142.71875 L 308.171875 147.796875 C 308.171875 148.03125 308.050781 148.25 307.855469 148.375 C 307.742188 148.449219 307.609375 148.484375 307.480469 148.484375 "/><path style="fill:none;stroke-width:4;stroke-linecap:round;stroke-linejoin:miter;stroke:#3e4c59;stroke-opacity:1;stroke-miterlimit:4;" d="M 1.999997 2.00003 L 388.000023 2.00003 " transform="matrix(0.75,0,0,0.75,37.500002,335.999978)"/><path style="fill-rule:nonzero;fill:#3e4c59;fill-opacity:1;stroke-width:4;stroke-linecap:round;stroke-linejoin:round;stroke:#3e4c59;stroke-opacity:1;stroke-miterlimit:4;" d="M 390.000023 -3.999971 L 398.000023 2.00003 L 390.000023 8.00003 Z M 390.000023 -3.999971 " transform="matrix(0.75,0,0,0.75,37.500002,335.999978)"/><g style="fill:#3e4c59;fill-opacity:1;"><g transform="translate(170.443352, 359.349936)"><path style="stroke:none" d="M 7.078125 -9.765625 L 7.078125 -8.71875 L 4.421875 -8.71875 L 4.421875 0 L 3.15625 0 L 3.15625 -8.71875 L 0.46875 -8.71875 L 0.46875 -9.765625 Z M 7.078125 -9.765625 "/></g></g><g style="fill:#3e4c59;fill-opacity:1;"><g transform="translate(178.013126, 359.349936)"><path style="stroke:none" d="M 1.734375 -8.921875 C 1.492188 -8.921875 1.289062 -9.003906 1.125 -9.171875 C 0.957031 -9.335938 0.875 -9.539062 0.875 -9.78125 C 0.875 -10.03125 0.957031 -10.238281 1.125 -10.40625 C 1.289062 -10.570312 1.492188 -10.65625 1.734375 -10.65625 C 1.972656 -10.65625 2.171875 -10.570312 2.328125 -10.40625 C 2.492188 -10.238281 2.578125 -10.03125 2.578125 -9.78125 C 2.578125 -9.539062 2.492188 -9.335938 2.328125 -9.171875 C 2.171875 -9.003906 1.972656 -8.921875 1.734375 -8.921875 Z M 2.359375 -7.671875 L 2.359375 0 L 1.078125 0 L 1.078125 -7.671875 Z M 2.359375 -7.671875 "/></g></g><g style="fill:#3e4c59;fill-opacity:1;"><g transform="translate(181.455199, 359.349936)"><path style="stroke:none" d="M 10.296875 -7.8125 C 10.898438 -7.8125 11.429688 -7.6875 11.890625 -7.4375 C 12.359375 -7.1875 12.726562 -6.816406 13 -6.328125 C 13.269531 -5.835938 13.40625 -5.234375 13.40625 -4.515625 L 13.40625 0 L 12.15625 0 L 12.15625 -4.34375 C 12.15625 -5.101562 11.960938 -5.6875 11.578125 -6.09375 C 11.203125 -6.5 10.691406 -6.703125 10.046875 -6.703125 C 9.390625 -6.703125 8.863281 -6.488281 8.46875 -6.0625 C 8.070312 -5.644531 7.875 -5.035156 7.875 -4.234375 L 7.875 0 L 6.625 0 L 6.625 -4.34375 C 6.625 -5.101562 6.429688 -5.6875 6.046875 -6.09375 C 5.671875 -6.5 5.160156 -6.703125 4.515625 -6.703125 C 3.859375 -6.703125 3.332031 -6.488281 2.9375 -6.0625 C 2.550781 -5.644531 2.359375 -5.035156 2.359375 -4.234375 L 2.359375 0 L 1.078125 0 L 1.078125 -7.671875 L 2.359375 -7.671875 L 2.359375 -6.5625 C 2.609375 -6.96875 2.941406 -7.273438 3.359375 -7.484375 C 3.785156 -7.703125 4.257812 -7.8125 4.78125 -7.8125 C 5.414062 -7.8125 5.976562 -7.664062 6.46875 -7.375 C 6.96875 -7.082031 7.34375 -6.660156 7.59375 -6.109375 C 7.800781 -6.648438 8.148438 -7.066406 8.640625 -7.359375 C 9.140625 -7.660156 9.691406 -7.8125 10.296875 -7.8125 Z M 10.296875 -7.8125 "/></g></g><g style="fill:#3e4c59;fill-opacity:1;"><g transform="translate(195.867155, 359.349936)"><path style="stroke:none" d="M 8.078125 -4.125 C 8.078125 -3.882812 8.0625 -3.628906 8.03125 -3.359375 L 1.90625 -3.359375 C 1.945312 -2.597656 2.203125 -2.003906 2.671875 -1.578125 C 3.148438 -1.160156 3.722656 -0.953125 4.390625 -0.953125 C 4.941406 -0.953125 5.398438 -1.078125 5.765625 -1.328125 C 6.140625 -1.585938 6.398438 -1.929688 6.546875 -2.359375 L 7.921875 -2.359375 C 7.710938 -1.628906 7.300781 -1.03125 6.6875 -0.5625 C 6.070312 -0.101562 5.304688 0.125 4.390625 0.125 C 3.660156 0.125 3.007812 -0.0351562 2.4375 -0.359375 C 1.863281 -0.691406 1.414062 -1.15625 1.09375 -1.75 C 0.769531 -2.351562 0.609375 -3.050781 0.609375 -3.84375 C 0.609375 -4.644531 0.765625 -5.34375 1.078125 -5.9375 C 1.390625 -6.53125 1.832031 -6.988281 2.40625 -7.3125 C 2.988281 -7.632812 3.648438 -7.796875 4.390625 -7.796875 C 5.117188 -7.796875 5.765625 -7.632812 6.328125 -7.3125 C 6.890625 -7 7.320312 -6.566406 7.625 -6.015625 C 7.925781 -5.460938 8.078125 -4.832031 8.078125 -4.125 Z M 6.765625 -4.390625 C 6.765625 -4.878906 6.65625 -5.296875 6.4375 -5.640625 C 6.226562 -5.992188 5.9375 -6.257812 5.5625 -6.4375 C 5.195312 -6.625 4.789062 -6.71875 4.34375 -6.71875 C 3.695312 -6.71875 3.144531 -6.507812 2.6875 -6.09375 C 2.238281 -5.6875 1.984375 -5.117188 1.921875 -4.390625 Z M 6.765625 -4.390625 "/></g></g></g></svg>