<svg xmlns="http://www.w3.org/2000/svg" xmlns:xlink="http://www.w3.org/1999/xlink" width="500" zoomAndPan="magnify" viewBox="0 0 375 374.999991" height="500" preserveAspectRatio="xMidYMid meet" version="1.0"><defs><clipPath id="0ef3797871"><path d="M 39 45 L 334 45 L 334 332.8125 L 39 332.8125 Z M 39 45 " clip-rule="nonzero"/></clipPath></defs><g clip-path="url(#0ef3797871)"><path fill="#000000" d="M 326.039062 82.667969 L 295.9375 52.527344 C 286.339844 42.917969 270.960938 42.5625 260.90625 51.660156 L 101.554688 198.210938 L 80.027344 219.8125 C 79.0625 220.777344 78.554688 222.050781 78.554688 223.421875 L 78.554688 241.621094 C 78.554688 247.058594 76.421875 252.140625 72.667969 256.003906 L 65.710938 262.917969 C 62.816406 265.816406 61.246094 269.628906 61.246094 273.695312 C 61.246094 277.761719 62.816406 281.625 65.710938 284.472656 C 65.710938 284.472656 40.582031 309.632812 40.582031 309.632812 C 39.414062 310.800781 38.90625 312.429688 39.160156 314.054688 C 39.414062 315.683594 40.429688 317.054688 41.902344 317.765625 L 70.636719 332.152344 C 71.347656 332.507812 72.109375 332.710938 72.921875 332.710938 C 74.242188 332.710938 75.507812 332.203125 76.523438 331.238281 L 94.445312 313.292969 C 97.339844 316.191406 101.148438 317.765625 105.207031 317.765625 C 109.269531 317.765625 113.128906 316.191406 115.96875 313.292969 L 122.824219 306.378906 C 126.683594 302.515625 131.808594 300.433594 137.242188 300.433594 L 155.414062 300.433594 C 156.734375 300.433594 158.054688 299.925781 159.019531 298.957031 L 180.75 277.253906 L 326.953125 117.84375 C 336.042969 107.78125 335.6875 92.378906 326.089844 82.769531 Z M 155.363281 288.082031 L 90.738281 223.371094 L 105.054688 208.984375 L 169.679688 273.695312 L 155.3125 288.082031 Z M 71.804688 321.425781 L 52.664062 311.820312 L 72.820312 291.636719 L 87.1875 306.023438 L 71.855469 321.375 Z M 115.613281 299.109375 L 108.710938 306.074219 C 106.78125 308.007812 103.429688 308.007812 101.503906 306.074219 L 72.769531 277.304688 C 71.804688 276.339844 71.296875 275.066406 71.296875 273.695312 C 71.296875 272.324219 71.804688 271.050781 72.769531 270.085938 L 79.773438 263.121094 C 85.511719 257.328125 88.660156 249.652344 88.660156 241.570312 L 88.660156 235.621094 L 143.128906 290.164062 L 137.191406 290.164062 C 129.066406 290.164062 121.453125 293.316406 115.613281 299.109375 Z M 319.390625 110.929688 L 176.789062 266.425781 L 112.46875 201.972656 L 267.710938 59.183594 C 273.75 53.695312 282.992188 53.949219 288.726562 59.742188 L 318.832031 89.886719 C 324.570312 95.632812 324.824219 104.882812 319.390625 110.929688 Z M 319.390625 110.929688 " fill-opacity="1" fill-rule="nonzero"/></g><path fill="#000000" d="M 250.5 106.609375 C 249.535156 105.644531 248.265625 105.136719 246.894531 105.136719 C 245.527344 105.136719 244.257812 105.695312 243.292969 106.609375 L 171.507812 178.488281 C 169.527344 180.46875 169.527344 183.671875 171.507812 185.652344 L 193.035156 207.207031 C 194 208.171875 195.265625 208.679688 196.636719 208.679688 C 198.007812 208.679688 199.277344 208.121094 200.242188 207.207031 L 272.027344 135.332031 C 274.003906 133.347656 274.003906 130.144531 272.027344 128.164062 Z M 196.636719 196.480469 L 182.269531 182.097656 L 246.894531 117.386719 L 261.261719 131.773438 Z M 196.636719 196.480469 " fill-opacity="1" fill-rule="nonzero"/></svg>