<svg xmlns="http://www.w3.org/2000/svg" xmlns:xlink="http://www.w3.org/1999/xlink" width="500" zoomAndPan="magnify" viewBox="0 0 375 374.999991" height="500" preserveAspectRatio="xMidYMid meet" version="1.2"><defs><clipPath id="deab6a9e7a"><path d="M 37.5 37.5 L 337.5 37.5 L 337.5 337.5 L 37.5 337.5 Z M 37.5 37.5 "/></clipPath></defs><g id="0201e23dca"><g clip-rule="nonzero" clip-path="url(#deab6a9e7a)"><path style=" stroke:none;fill-rule:nonzero;fill:#000000;fill-opacity:1;" d="M 187.5 37.5 C 146.0625 37.5 112.5 71.0625 112.5 112.5 C 112.5 153.84375 146.0625 187.5 187.5 187.5 C 228.9375 187.5 262.5 153.84375 262.5 112.5 C 262.5 71.0625 228.9375 37.5 187.5 37.5 Z M 187.5 225 C 137.53125 225 37.5 250.03125 37.5 300 L 37.5 337.5 L 337.5 337.5 L 337.5 300 C 337.5 250.03125 237.46875 225 187.5 225 Z M 187.5 225 "/></g></g></svg>