<svg xmlns="http://www.w3.org/2000/svg" xmlns:xlink="http://www.w3.org/1999/xlink" width="1000" zoomAndPan="magnify" viewBox="0 0 750 749.999995" height="1000" preserveAspectRatio="xMidYMid meet" version="1.2"><defs><clipPath id="b15cd712fd"><path d="M 56.25 56.25 L 693.75 56.25 L 693.75 693.75 L 56.25 693.75 Z M 56.25 56.25 "/></clipPath><clipPath id="e16cffc151"><path d="M 375 56.25 C 198.960938 56.25 56.25 198.960938 56.25 375 C 56.25 551.039062 198.960938 693.75 375 693.75 C 551.039062 693.75 693.75 551.039062 693.75 375 C 693.75 198.960938 551.039062 56.25 375 56.25 Z M 375 56.25 "/></clipPath><clipPath id="d5b372a43d"><path d="M 93.75 93.75 L 656.25 93.75 L 656.25 656.25 L 93.75 656.25 Z M 93.75 93.75 "/></clipPath><clipPath id="35ca7f28c2"><path d="M 375 93.75 C 219.667969 93.75 93.75 219.667969 93.75 375 C 93.75 530.328125 219.667969 656.25 375 656.25 C 530.328125 656.25 656.25 530.328125 656.25 375 C 656.25 219.667969 530.328125 93.75 375 93.75 Z M 375 93.75 "/></clipPath><clipPath id="4092a1ac33"><path d="M 131.25 131.25 L 618.75 131.25 L 618.75 618.75 L 131.25 618.75 Z M 131.25 131.25 "/></clipPath><clipPath id="603141a7fd"><path d="M 375 131.25 C 240.378906 131.25 131.25 240.378906 131.25 375 C 131.25 509.621094 240.378906 618.75 375 618.75 C 509.621094 618.75 618.75 509.621094 618.75 375 C 618.75 240.378906 509.621094 131.25 375 131.25 Z M 375 131.25 "/></clipPath></defs><g id="10dcd3f433"><rect x="0" width="750" y="0" height="749.999995" style="fill:#ffffff;fill-opacity:1;stroke:none;"/><rect x="0" width="750" y="0" height="749.999995" style="fill:#ffffff;fill-opacity:1;stroke:none;"/><g clip-rule="nonzero" clip-path="url(#b15cd712fd)"><g clip-rule="nonzero" clip-path="url(#e16cffc151)"><path style="fill:none;stroke-width:4;stroke-linecap:butt;stroke-linejoin:miter;stroke:#000000;stroke-opacity:1;stroke-miterlimit:4;" d="M 425.000021 -0.0000230117 C 190.281259 -0.0000230117 0.000000121667 190.281236 0.000000121667 424.999998 C 0.000000121667 659.718759 190.281259 850.000018 425.000021 850.000018 C 659.718782 850.000018 850.000042 659.718759 850.000042 424.999998 C 850.000042 190.281236 659.718782 -0.0000230117 425.000021 -0.0000230117 Z M 425.000021 -0.0000230117 " transform="matrix(0.75,0,0,0.75,56.25,56.250017)"/></g></g><g clip-rule="nonzero" clip-path="url(#d5b372a43d)"><g clip-rule="nonzero" clip-path="url(#35ca7f28c2)"><path style="fill:none;stroke-width:4;stroke-linecap:butt;stroke-linejoin:miter;stroke:#000000;stroke-opacity:1;stroke-miterlimit:4;" d="M 375.000045 -0.000020575 C 167.890646 -0.000020575 0.00000255833 167.890623 0.00000255833 375.000022 C 0.00000255833 582.104212 167.890646 750.000064 375.000045 750.000064 C 582.104235 750.000064 750.000087 582.104212 750.000087 375.000022 C 750.000087 167.890623 582.104235 -0.000020575 375.000045 -0.000020575 Z M 375.000045 -0.000020575 " transform="matrix(0.75,0,0,0.75,93.749998,93.750015)"/></g></g><g clip-rule="nonzero" clip-path="url(#4092a1ac33)"><g clip-rule="nonzero" clip-path="url(#603141a7fd)"><path style="fill:none;stroke-width:4;stroke-linecap:butt;stroke-linejoin:miter;stroke:#000000;stroke-opacity:1;stroke-miterlimit:4;" d="M 325.000042 -0.0000181383 C 145.50523 -0.0000181383 0.000004995 145.505207 0.000004995 325.000019 C 0.000004995 504.49483 145.50523 650.000055 325.000042 650.000055 C 504.494854 650.000055 650.000078 504.49483 650.000078 325.000019 C 650.000078 145.505207 504.494854 -0.0000181383 325.000042 -0.0000181383 Z M 325.000042 -0.0000181383 " transform="matrix(0.75,0,0,0.75,131.249996,131.250014)"/></g></g><g style="fill:#000000;fill-opacity:1;"><g transform="translate(317.496081, 397.125001)"><path style="stroke:none" d="M 10.375 0 L 1.46875 -41.984375 L 6.96875 -41.984375 L 11.390625 -19.140625 C 11.773438 -16.835938 12.179688 -14.578125 12.609375 -12.359375 C 13.035156 -10.140625 13.441406 -7.875 13.828125 -5.5625 L 14.078125 -5.5625 C 14.546875 -7.875 15.035156 -10.148438 15.546875 -12.390625 C 16.054688 -14.628906 16.550781 -16.878906 17.03125 -19.140625 L 22.84375 -41.984375 L 27.71875 -41.984375 L 33.53125 -19.140625 C 34.039062 -16.921875 34.550781 -14.679688 35.0625 -12.421875 C 35.582031 -10.160156 36.097656 -7.875 36.609375 -5.5625 L 36.859375 -5.5625 C 37.242188 -7.875 37.628906 -10.148438 38.015625 -12.390625 C 38.398438 -14.628906 38.804688 -16.878906 39.234375 -19.140625 L 43.640625 -41.984375 L 48.765625 -41.984375 L 40.0625 0 L 33.65625 0 L 27.328125 -25.28125 C 26.941406 -26.90625 26.585938 -28.492188 26.265625 -30.046875 C 25.953125 -31.609375 25.625 -33.195312 25.28125 -34.8125 L 25.03125 -34.8125 C 24.6875 -33.195312 24.332031 -31.609375 23.96875 -30.046875 C 23.601562 -28.492188 23.25 -26.90625 22.90625 -25.28125 L 16.703125 0 Z M 10.375 0 "/></g></g><g style="fill:#000000;fill-opacity:1;"><g transform="translate(367.796993, 397.125001)"><path style="stroke:none" d="M 5.25 0 L 5.25 -45.5625 L 10.5 -45.5625 L 10.5 -33.15625 L 10.296875 -26.75 C 11.796875 -28.15625 13.351562 -29.359375 14.96875 -30.359375 C 16.59375 -31.367188 18.492188 -31.875 20.671875 -31.875 C 23.953125 -31.875 26.347656 -30.847656 27.859375 -28.796875 C 29.378906 -26.753906 30.140625 -23.726562 30.140625 -19.71875 L 30.140625 0 L 24.890625 0 L 24.890625 -19.015625 C 24.890625 -21.953125 24.421875 -24.070312 23.484375 -25.375 C 22.546875 -26.675781 21.054688 -27.328125 19.015625 -27.328125 C 17.390625 -27.328125 15.957031 -26.921875 14.71875 -26.109375 C 13.476562 -25.296875 12.070312 -24.101562 10.5 -22.53125 L 10.5 0 Z M 5.25 0 "/></g></g><g style="fill:#000000;fill-opacity:1;"><g transform="translate(402.610857, 397.125001)"><path style="stroke:none" d="M 5.765625 13.375 C 5.035156 13.375 4.367188 13.320312 3.765625 13.21875 C 3.171875 13.113281 2.617188 12.953125 2.109375 12.734375 L 3.140625 8.578125 C 3.472656 8.660156 3.851562 8.753906 4.28125 8.859375 C 4.707031 8.972656 5.113281 9.03125 5.5 9.03125 C 7.289062 9.03125 8.75 8.398438 9.875 7.140625 C 11.007812 5.878906 11.898438 4.289062 12.546875 2.375 L 13.25 0.0625 L 0.765625 -31.109375 L 6.203125 -31.109375 L 12.546875 -13.890625 C 13.015625 -12.523438 13.515625 -11.082031 14.046875 -9.5625 C 14.578125 -8.050781 15.078125 -6.570312 15.546875 -5.125 L 15.8125 -5.125 C 16.28125 -6.53125 16.726562 -8 17.15625 -9.53125 C 17.582031 -11.070312 18.007812 -12.523438 18.4375 -13.890625 L 24 -31.109375 L 29.125 -31.109375 L 17.40625 2.5625 C 16.851562 4.09375 16.234375 5.519531 15.546875 6.84375 C 14.867188 8.164062 14.0625 9.304688 13.125 10.265625 C 12.1875 11.234375 11.117188 11.992188 9.921875 12.546875 C 8.722656 13.097656 7.335938 13.375 5.765625 13.375 Z M 5.765625 13.375 "/></g></g></g></svg>